<mxfile host="app.diagrams.net" agent="Mozilla/5.0 (Windows NT 10.0; Win64; x64) AppleWebKit/537.36 (KHTML, like Gecko) Chrome/140.0.0.0 Safari/537.36" version="28.2.3">
  <diagram name="Page-1" id="e6WYf2_Nmz3HdsmvX9vr">
    <mxGraphModel dx="1737" dy="937" grid="1" gridSize="10" guides="1" tooltips="1" connect="1" arrows="1" fold="1" page="1" pageScale="1" pageWidth="850" pageHeight="1100" math="0" shadow="0">
      <root>
        <mxCell id="0" />
        <mxCell id="1" parent="0" />
        <mxCell id="6QP8NQXGurYi7_9vJGG8-12" style="edgeStyle=orthogonalEdgeStyle;rounded=0;orthogonalLoop=1;jettySize=auto;html=1;entryX=0.5;entryY=0;entryDx=0;entryDy=0;" edge="1" parent="1" source="6QP8NQXGurYi7_9vJGG8-2" target="6QP8NQXGurYi7_9vJGG8-3">
          <mxGeometry relative="1" as="geometry" />
        </mxCell>
        <mxCell id="6QP8NQXGurYi7_9vJGG8-2" value="Plan" style="rounded=0;whiteSpace=wrap;html=1;" vertex="1" parent="1">
          <mxGeometry x="340" y="10" width="120" height="70" as="geometry" />
        </mxCell>
        <mxCell id="6QP8NQXGurYi7_9vJGG8-13" style="edgeStyle=orthogonalEdgeStyle;rounded=0;orthogonalLoop=1;jettySize=auto;html=1;exitX=0.5;exitY=1;exitDx=0;exitDy=0;" edge="1" parent="1" source="6QP8NQXGurYi7_9vJGG8-3" target="6QP8NQXGurYi7_9vJGG8-4">
          <mxGeometry relative="1" as="geometry" />
        </mxCell>
        <mxCell id="6QP8NQXGurYi7_9vJGG8-3" value="Develop" style="ellipse;whiteSpace=wrap;html=1;aspect=fixed;" vertex="1" parent="1">
          <mxGeometry x="350" y="110" width="100" height="100" as="geometry" />
        </mxCell>
        <mxCell id="6QP8NQXGurYi7_9vJGG8-14" style="edgeStyle=orthogonalEdgeStyle;rounded=0;orthogonalLoop=1;jettySize=auto;html=1;exitX=0.5;exitY=1;exitDx=0;exitDy=0;entryX=1;entryY=0.5;entryDx=0;entryDy=0;" edge="1" parent="1" source="6QP8NQXGurYi7_9vJGG8-4">
          <mxGeometry relative="1" as="geometry">
            <mxPoint x="398.75" y="352.5" as="targetPoint" />
          </mxGeometry>
        </mxCell>
        <mxCell id="6QP8NQXGurYi7_9vJGG8-4" value="Built" style="shape=parallelogram;perimeter=parallelogramPerimeter;whiteSpace=wrap;html=1;fixedSize=1;" vertex="1" parent="1">
          <mxGeometry x="340" y="250" width="120" height="60" as="geometry" />
        </mxCell>
        <mxCell id="6QP8NQXGurYi7_9vJGG8-7" value="Deploye" style="ellipse;shape=cloud;whiteSpace=wrap;html=1;" vertex="1" parent="1">
          <mxGeometry x="307.5" y="610" width="165" height="120" as="geometry" />
        </mxCell>
        <mxCell id="6QP8NQXGurYi7_9vJGG8-17" style="edgeStyle=orthogonalEdgeStyle;rounded=0;orthogonalLoop=1;jettySize=auto;html=1;exitX=0.55;exitY=0.95;exitDx=0;exitDy=0;exitPerimeter=0;entryX=0.444;entryY=0.115;entryDx=0;entryDy=0;entryPerimeter=0;" edge="1" parent="1" source="6QP8NQXGurYi7_9vJGG8-7">
          <mxGeometry relative="1" as="geometry">
            <mxPoint x="399.3799999999999" y="774.9499999999998" as="targetPoint" />
          </mxGeometry>
        </mxCell>
        <mxCell id="6QP8NQXGurYi7_9vJGG8-26" style="edgeStyle=orthogonalEdgeStyle;rounded=0;orthogonalLoop=1;jettySize=auto;html=1;exitX=0;exitY=0.5;exitDx=0;exitDy=0;entryX=0.578;entryY=0.165;entryDx=0;entryDy=0;entryPerimeter=0;" edge="1" parent="1">
          <mxGeometry relative="1" as="geometry">
            <mxPoint x="398.75" y="445" as="sourcePoint" />
            <mxPoint x="399.3599999999999" y="489.8000000000002" as="targetPoint" />
          </mxGeometry>
        </mxCell>
        <mxCell id="6QP8NQXGurYi7_9vJGG8-31" value="Test" style="shape=cylinder3;whiteSpace=wrap;html=1;boundedLbl=1;backgroundOutline=1;size=15;" vertex="1" parent="1">
          <mxGeometry x="365" y="350" width="65" height="90" as="geometry" />
        </mxCell>
        <mxCell id="6QP8NQXGurYi7_9vJGG8-32" value="Release" style="whiteSpace=wrap;html=1;shape=mxgraph.basic.pointed_oval" vertex="1" parent="1">
          <mxGeometry x="357.5" y="495" width="85" height="110" as="geometry" />
        </mxCell>
        <mxCell id="6QP8NQXGurYi7_9vJGG8-34" value="Operater" style="shape=cylinder3;whiteSpace=wrap;html=1;boundedLbl=1;backgroundOutline=1;size=15;lid=0;" vertex="1" parent="1">
          <mxGeometry x="337.5" y="760" width="120" height="120" as="geometry" />
        </mxCell>
        <mxCell id="6QP8NQXGurYi7_9vJGG8-38" value="Monitor" style="shape=process;whiteSpace=wrap;html=1;backgroundOutline=1;" vertex="1" parent="1">
          <mxGeometry x="320" y="940" width="180" height="100" as="geometry" />
        </mxCell>
        <mxCell id="6QP8NQXGurYi7_9vJGG8-39" value="" style="endArrow=classic;html=1;rounded=0;" edge="1" parent="1">
          <mxGeometry width="50" height="50" relative="1" as="geometry">
            <mxPoint x="399.17" y="600" as="sourcePoint" />
            <mxPoint x="399.17" y="630" as="targetPoint" />
            <Array as="points" />
          </mxGeometry>
        </mxCell>
        <mxCell id="6QP8NQXGurYi7_9vJGG8-40" style="edgeStyle=orthogonalEdgeStyle;rounded=0;orthogonalLoop=1;jettySize=auto;html=1;exitX=0.5;exitY=1;exitDx=0;exitDy=0;exitPerimeter=0;entryX=0.431;entryY=0.054;entryDx=0;entryDy=0;entryPerimeter=0;" edge="1" parent="1" source="6QP8NQXGurYi7_9vJGG8-34" target="6QP8NQXGurYi7_9vJGG8-38">
          <mxGeometry relative="1" as="geometry" />
        </mxCell>
      </root>
    </mxGraphModel>
  </diagram>
</mxfile>
